<svg width="16" height="17" viewBox="0 0 16 17" fill="none" xmlns="http://www.w3.org/2000/svg">
<path d="M5.4375 14.6744L0.234375 9.47125C0.078125 9.315 0 9.1275 0 8.90875C0 8.69 0.078125 8.5025 0.234375 8.34625L1.35938 7.20563C1.51562 7.04938 1.70573 6.97125 1.92969 6.97125C2.15365 6.97125 2.34375 7.04938 2.5 7.20563L6 10.7056L13.5 3.20563C13.6562 3.04938 13.8464 2.97125 14.0703 2.97125C14.2943 2.97125 14.4844 3.04938 14.6406 3.20563L15.7656 4.34625C15.9219 4.5025 16 4.69 16 4.90875C16 5.1275 15.9219 5.315 15.7656 5.47125L6.5625 14.6744C6.40625 14.8306 6.21875 14.9088 6 14.9088C5.78125 14.9088 5.59375 14.8306 5.4375 14.6744Z" fill="#C5CE38"/>
</svg>
